# xmcd
# Copyright (C) 1995-1998 Ti Kan
#
# Track frame offsets:
#       151
#       4367
#       20717
#       35644
#       48047
#       62559
#       78508
#       84454
#       99466
#       124319
#       134682
#       150242
#       152909
#       172218
#       187879
#       202299
#       218166
#       232539
#       238087
#       255252
#       269166
#
# Disc length: 3730 seconds
#
# Revision: 0
# Processed by: cddbd v1.5.2PL0 Copyright (c) Steve Scherf et al.
# Submitted via: CD-Transfer v1.0
#
DISCID=230e9015
DTITLE=Beastie Boys - Beastie Boys
DYEAR=1900
DGENRE=
TTITLE0=Beastie Boys
TTITLE1=Slow And Low
TTITLE2=Shake Your Rump
TTITLE3=Gratitude
TTITLE4=Skills To Pay The Bills
TTITLE5=Root Down
TTITLE6=Believe Me
TTITLE7=Sure Shot
TTITLE8=Body Movin (Fatboy Slim Remix)
TTITLE9=Boomin' Granny
TTITLE10=Fight For Your Right
TTITLE11=Country Mike's Theme
TTITLE12=Pass The Mic
TTITLE13=Something's Got To Give
TTITLE14=Bodhisattva Vow
TTITLE15=Sabrosa
TTITLE16=Song For The Man
TTITLE17=Soba Violence
TTITLE18=Alive
TTITLE19=Jimmy James
TTITLE20=Threemc's And One Dj
EXTD=
EXTT0=
EXTT1=
EXTT2=
EXTT3=
EXTT4=
EXTT5=
EXTT6=
EXTT7=
EXTT8=
EXTT9=
EXTT10=
EXTT11=
EXTT12=
EXTT13=
EXTT14=
EXTT15=
EXTT16=
EXTT17=
EXTT18=
EXTT19=
EXTT20=
PLAYORDER=
